<?xml version="1.0" encoding="UTF-8"?>
<svg width="120px" height="120px" viewBox="0 0 120 120" version="1.1" xmlns="http://www.w3.org/2000/svg" xmlns:xlink="http://www.w3.org/1999/xlink">
    <!-- Generator: Sketch 53.2 (72643) - https://sketchapp.com -->
    <title>Group 3</title>
    <desc>Created with Sketch.</desc>
    <g id="app" stroke="none" stroke-width="1" fill="none" fill-rule="evenodd">
        <g id="sign-in" transform="translate(-128.000000, -52.000000)">
            <g id="Group-3" transform="translate(128.000000, 52.000000)">
                <ellipse id="Oval" fill="#45B8FF" cx="60" cy="59.8290598" rx="60" ry="59.8290598"></ellipse>
                <path d="M1.98615488,75.1529823 C0.690323729,70.2621656 0,65.1259999 0,59.8290598 C0,26.7863825 26.862915,-7.10542736e-15 60,-7.10542736e-15 C88.5770779,-7.10542736e-15 112.487956,19.9214571 118.527573,46.5969311 C91.1574482,36.9471148 69.796702,39.9565102 54.4453346,55.6251173 C39.133706,71.2531644 21.6473128,77.7624528 1.98615488,75.1529823 Z" id="Combined-Shape" fill="#6DE4FF" opacity="0.395717076"></path>
                <path d="M4.11541217,38.0089207 C12.8600018,15.7572166 34.5845958,0 60,0 C70.6126043,0 80.5816744,2.74744751 89.2308893,7.56794835 C58.5686165,14.1758675 55.1810982,26.7796435 44.328495,37.8565184 C32.2616455,50.1727323 13.6686456,47.4703578 4.11541217,38.0089207 Z" id="Combined-Shape-Copy" fill="#9BECFF" opacity="0.395717076"></path>
                <path d="M23.5015177,107.319276 C23.2657163,106.576994 23.1428571,105.802123 23.1428571,104.994664 C23.1428571,84.9875504 40.028118,71.6666667 60.8571429,71.6666667 C81.6861677,71.6666667 98.5714286,84.9875504 98.5714286,104.994664 C98.5714286,105.227318 98.5612289,105.457267 98.5410666,105.68451 C88.1158893,114.406113 74.673033,119.65812 60,119.65812 C46.2680047,119.65812 33.613454,115.058173 23.5015177,107.319276 Z M60.8571429,66.6666667 C47.6023089,66.6666667 36.8571429,56.2199775 36.8571429,43.3333333 C36.8571429,30.4466892 47.6023089,20 60.8571429,20 C74.1119769,20 84.8571429,30.4466892 84.8571429,43.3333333 C84.8571429,56.2199775 74.1119769,66.6666667 60.8571429,66.6666667 Z" id="Combined-Shape" fill="#FFFFFF"></path>
            </g>
        </g>
    </g>
</svg>